#!OML:ASF F:\VICON\USERDATA\INSTALL\rory3\rory3.ASF
:FULLY-SPECIFIED
:DEGREES
345
root 4.62001 17.052 2.98868 12.4638 -7.98526 -6.45092
lowerback -0.838995 -0.31496 4.02978
upperback -0.671961 -0.444072 0.751077
thorax -0.243711 -0.235724 -1.49041
lowerneck -11.9197 0.667701 -1.02053
upperneck 38.5479 0.635335 1.32063
head 15.5522 0.230521 0.832422
rclavicle -1.68967e-015 6.36111e-015
rhumerus -26.8774 14.706 -34.1022
rradius 77.8412
rwrist -8.75591
rhand -10.6373 -39.9996
rfingers 7.12502
rthumb 15.3699 -69.4084
lclavicle -1.68967e-015 6.36111e-015
lhumerus -3.8653 -4.37015 12.5342
lradius 29.6901
lwrist 13.7681
lhand -27.1164 -28.1364
lfingers 7.12502
lthumb -0.532518 1.84271
rfemur -53.4807 -2.55835 14.6783
rtibia 91.3177
rfoot 33.182 -6.03476
rtoes -10.6439
lfemur -29.0087 -2.30036 -22.5293
ltibia 39.5648
lfoot -19.9238 8.41183
ltoes 12.9372
346
root 4.6263 17.0555 2.99669 12.3121 -7.93939 -6.44547
lowerback -0.768755 -0.320662 4.10168
upperback -0.635062 -0.449521 0.741752
thorax -0.246224 -0.238263 -1.53991
lowerneck -11.8589 0.643743 -1.01415
upperneck 38.5664 0.60702 1.29284
head 15.5476 0.215622 0.8146
rclavicle -1.49089e-014 -1.39149e-014
rhumerus -27.2044 14.7984 -34.2847
rradius 77.5599
rwrist -8.71698
rhand -11.0215 -38.3044
rfingers 7.12502
rthumb 14.9998 -67.7411
lclavicle -1.49089e-014 -1.39149e-014
lhumerus -4.0914 -4.82755 12.6753
lradius 29.7662
lwrist 13.9399
lhand -27.3629 -28.2952
lfingers 7.12502
lthumb -0.770589 1.68311
rfemur -53.8425 -2.66889 14.8274
rtibia 91.8294
rfoot 33.3262 -5.37774
rtoes -11.1958
lfemur -28.7593 -2.32421 -22.5704
ltibia 39.4855
lfoot -19.9171 8.38678
ltoes 13.0339
347
root 4.6306 17.0581 2.99536 12.2485 -7.84274 -6.55112
lowerback -0.663048 -0.357893 4.2579
upperback -0.578626 -0.495999 0.769997
thorax -0.251424 -0.261294 -1.59799
lowerneck -12.0365 0.651504 -1.00954
upperneck 38.6489 0.612305 1.30967
head 15.6322 0.220267 0.824156
rclavicle -9.14409e-015 2.42517e-014
rhumerus -27.4881 14.7763 -34.5033
rradius 77.3432
rwrist -8.42556
rhand -10.9153 -36.8533
rfingers 7.12502
rthumb 15.1021 -66.2823
lclavicle -9.14409e-015 2.42517e-014
lhumerus -4.26971 -4.72884 12.8264
lradius 29.6902
lwrist 13.6795
lhand -27.5576 -28.6971
lfingers 7.12502
lthumb -0.958652 1.28045
rfemur -54.2794 -2.71485 15.1132
rtibia 92.3081
rfoot 33.1112 -4.58667
rtoes -12.4746
lfemur -28.6565 -2.27859 -22.475
ltibia 39.418
lfoot -19.8615 8.26379
ltoes 12.8494
348
root 4.634 17.0605 2.98942 12.245 -7.76435 -6.57859
lowerback -0.582509 -0.410496 4.30034
upperback -0.535978 -0.56322 0.793752
thorax -0.256982 -0.294489 -1.5971
lowerneck -12.2351 0.668985 -1.02382
upperneck 38.7218 0.635542 1.33192
head 15.7168 0.230315 0.842436
rclavicle -2.78299e-015 -2.14687e-014
rhumerus -27.6238 14.724 -34.6973
rradius 77.0885
rwrist -8.39863
rhand -10.8302 -36.9102
rfingers 7.12502
rthumb 15.1841 -66.3331
lclavicle -2.78299e-015 -2.14687e-014
lhumerus -4.46559 -4.66432 12.942
lradius 29.6271
lwrist 13.6925
lhand -27.1727 -28.5168
lfingers 7.12502
lthumb -0.586857 1.46216
rfemur -54.8817 -2.74334 15.3064
rtibia 92.8072
rfoot 33.0432 -3.89764
rtoes -12.6737
lfemur -28.6703 -2.20944 -22.461
ltibia 39.3689
lfoot -19.8155 8.14909
ltoes 12.6259
349
root 4.63923 17.0639 2.98592 12.2131 -7.7051 -6.53902
lowerback -0.52986 -0.440319 4.3009
upperback -0.478858 -0.601858 0.795252
thorax -0.230148 -0.312459 -1.5958
lowerneck -12.379 0.650525 -1.10583
upperneck 38.7563 0.604248 1.40663
head 15.769 0.215304 0.885776
rclavicle -6.75868e-015 9.54166e-015
rhumerus -27.6207 14.5508 -34.8673
rradius 76.5988
rwrist -8.29387
rhand -11.0857 -36.5344
rfingers 7.12502
rthumb 14.9379 -65.9757
lclavicle -6.75868e-015 9.54166e-015
lhumerus -4.80822 -5.0592 13.036
lradius 29.9495
lwrist 14.1446
lhand -26.3198 -28.4478
lfingers 7.12502
lthumb 0.236881 1.53182
rfemur -55.4686 -2.79713 15.388
rtibia 93.3093
rfoot 33.4708 -3.92843
rtoes -11.5642
lfemur -28.6424 -2.23878 -22.5154
ltibia 39.3341
lfoot -19.798 8.08229
ltoes 12.8677
350
root 4.64262 17.0646 2.9794 12.1473 -7.68798 -6.54732
lowerback -0.413351 -0.456563 4.30977
upperback -0.411545 -0.619242 0.812684
thorax -0.227318 -0.320123 -1.58223
lowerneck -12.4689 0.636704 -1.14302
upperneck 38.7605 0.591985 1.41545
head 15.7931 0.206018 0.895007
rclavicle -5.22804e-014 -3.18055e-015
rhumerus -27.618 14.4293 -35.0593
rradius 75.6201
rwrist -7.15632
rhand -12.1281 -34.3146
rfingers 7.12502
rthumb 13.9335 -63.8278
lclavicle -5.22804e-014 -3.18055e-015
lhumerus -5.20011 -5.26696 13.1814
lradius 30.3231
lwrist 14.2301
lhand -26.0348 -28.495
lfingers 7.12502
lthumb 0.512117 1.4841
rfemur -56.0507 -2.77224 15.538
rtibia 93.8336
rfoot 33.9114 -4.11159
rtoes -11.1155
lfemur -28.5817 -2.22314 -22.518
ltibia 39.307
lfoot -19.7739 8.04512
ltoes 13.1541
351
root 4.64583 17.0638 2.97196 12.1249 -7.66733 -6.58297
lowerback -0.384441 -0.456664 4.32206
upperback -0.356684 -0.619536 0.847756
thorax -0.186966 -0.318703 -1.55318
lowerneck -12.4342 0.629476 -1.13762
upperneck 38.733 0.599617 1.36331
head 15.7708 0.20326 0.872228
rclavicle -1.95803e-014 2.10712e-014
rhumerus -28.443 14.9451 -35.1164
rradius 76.3045
rwrist -7.06087
rhand -12.4172 -34.872
rfingers 7.12502
rthumb 13.6549 -64.4041
lclavicle -1.95803e-014 2.10712e-014
lhumerus -5.26354 -4.96361 13.4359
lradius 30.1407
lwrist 13.8791
lhand -25.7023 -28.7846
lfingers 7.12502
lthumb 0.833277 1.19349
rfemur -56.6959 -2.77572 15.7398
rtibia 94.3892
rfoot 34.1268 -4.05277
rtoes -11.0929
lfemur -28.5748 -2.14052 -22.5078
ltibia 39.2866
lfoot -19.7226 8.01886
ltoes 13.1579
352
root 4.65037 17.0655 2.96358 12.134 -7.62157 -6.61978
lowerback -0.375552 -0.443649 4.33736
upperback -0.325985 -0.602721 0.89493
thorax -0.159093 -0.30932 -1.51342
lowerneck -12.416 0.598858 -1.16775
upperneck 38.788 0.5748 1.33051
head 15.7951 0.183859 0.860069
rclavicle 8.84592e-015 1.19271e-015
rhumerus -28.7809 15.0106 -35.2251
rradius 76.1495
rwrist -6.99442
rhand -12.3378 -35.4365
rfingers 7.12502
rthumb 13.7314 -64.9634
lclavicle 8.84592e-015 1.19271e-015
lhumerus -5.14594 -4.4931 13.7618
lradius 29.6856
lwrist 13.4809
lhand -24.8759 -29.2305
lfingers 7.12502
lthumb 1.63141 0.743037
rfemur -57.3843 -2.85566 15.9423
rtibia 94.933
rfoot 34.4203 -4.2982
rtoes -10.2895
lfemur -28.6322 -2.04306 -22.4906
ltibia 39.2936
lfoot -19.6819 7.87995
ltoes 13.2244
353
root 4.652 17.0643 2.95332 12.0729 -7.59841 -6.56347
lowerback -0.219995 -0.448019 4.22934
upperback -0.306583 -0.600395 0.919856
thorax -0.224857 -0.308863 -1.42621
lowerneck -12.4642 0.554133 -1.20322
upperneck 38.9098 0.538435 1.27614
head 15.8706 0.155027 0.8388
rclavicle 5.56597e-015 -5.96354e-015
rhumerus -28.7602 14.7523 -35.3662
rradius 75.471
rwrist -6.75433
rhand -11.9614 -35.478
rfingers 7.12502
rthumb 14.0941 -64.98
lclavicle 5.56597e-015 -5.96354e-015
lhumerus -5.35282 -4.45603 14.0129
lradius 29.6975
lwrist 13.413
lhand -25.2309 -28.3738
lfingers 7.12502
lthumb 1.28854 1.60202
rfemur -58.0713 -2.93134 16.0466
rtibia 95.4931
rfoot 34.7702 -4.18669
rtoes -9.51398
lfemur -28.66 -1.92284 -22.5524
ltibia 39.3154
lfoot -19.75 7.64181
ltoes 13.4711
354
root 4.65578 17.0614 2.94697 12.0075 -7.51401 -6.62478
lowerback -0.036128 -0.481628 4.31295
upperback -0.298689 -0.635264 0.951103
thorax -0.322429 -0.32817 -1.43915
lowerneck -12.4806 0.550517 -1.16299
upperneck 39.008 0.564159 1.16359
head 15.9258 0.155237 0.788307
rclavicle -1.68967e-015 1.11319e-014
rhumerus -28.8066 14.5506 -35.5384
rradius 75.0116
rwrist -6.52946
rhand -11.7794 -35.1656
rfingers 7.12502
rthumb 14.2696 -64.6554
lclavicle -1.68967e-015 1.11319e-014
lhumerus -5.70026 -4.64789 14.1807
lradius 29.9195
lwrist 13.6986
lhand -25.808 -27.977
lfingers 7.12502
lthumb 0.731161 2.00147
rfemur -58.6715 -2.98767 16.2758
rtibia 96.0144
rfoot 35.0942 -3.46653
rtoes -9.07414
lfemur -28.6453 -1.79042 -22.5009
ltibia 39.3396
lfoot -19.7961 7.48463
ltoes 13.4499
355
root 4.66198 17.0615 2.94126 11.9477 -7.37936 -6.73529
lowerback 0.159291 -0.518655 4.48856
upperback -0.307205 -0.672721 0.991603
thorax -0.444555 -0.349822 -1.49356
lowerneck -12.3368 0.588523 -1.10548
upperneck 38.9956 0.64668 1.05278
head 15.8838 0.183194 0.742581
rclavicle 2.69353e-014 -3.97569e-015
rhumerus -29.105 14.5656 -35.6991
rradius 74.9108
rwrist -6.46433
rhand -11.8865 -35.1027
rfingers 7.12502
rthumb 14.1664 -64.5997
lclavicle 2.69353e-014 -3.97569e-015
lhumerus -5.95679 -4.74002 14.3831
lradius 30.087
lwrist 13.8482
lhand -24.8779 -29.1292
lfingers 7.12502
lthumb 1.62953 0.844361
rfemur -59.1932 -3.0939 16.5519
rtibia 96.4942
rfoot 35.3433 -2.85722
rtoes -9.41046
lfemur -28.6122 -1.6427 -22.4043
ltibia 39.3513
lfoot -19.7784 7.27122
ltoes 13.306
356
root 4.66616 17.0607 2.93612 11.8272 -7.2353 -6.68574
lowerback 0.325695 -0.548172 4.48402
upperback -0.262744 -0.703882 1.00355
thorax -0.493878 -0.365662 -1.4771
lowerneck -12.1122 0.607857 -1.16918
upperneck 38.8136 0.687961 1.06944
head 15.7343 0.195746 0.764719
rclavicle 1.13307e-014 7.95139e-016
rhumerus -29.5468 14.6018 -35.7888
rradius 75.0625
rwrist -6.81235
rhand -11.8352 -34.8235
rfingers 7.12502
rthumb 14.2158 -64.317
lclavicle 1.13307e-014 7.95139e-016
lhumerus -6.07799 -4.60837 14.6749
lradius 30.0801
lwrist 13.4932
lhand -24.3522 -29.5949
lfingers 7.12502
lthumb 2.13717 0.374172
rfemur -59.6287 -3.32736 16.6316
rtibia 97.0086
rfoot 35.4716 -3.15844
rtoes -9.48251
lfemur -28.5195 -1.50114 -22.4733
ltibia 39.333
lfoot -19.7294 6.96393
ltoes 13.1162
